<?xml version="1.0" encoding="UTF-8"?>
<!DOCTYPE svg PUBLIC "-//W3C//DTD SVG 1.1//EN" "http://www.w3.org/Graphics/SVG/1.1/DTD/svg11.dtd">
<svg version="1.2" viewBox="2050 2050 6750 4150" preserveAspectRatio="xMidYMid" fill-rule="evenodd" stroke-width="28.222" stroke-linejoin="round" xmlns="http://www.w3.org/2000/svg" xmlns:ooo="http://xml.openoffice.org/svg/export" xmlns:xlink="http://www.w3.org/1999/xlink" xmlns:presentation="http://sun.com/xmlns/staroffice/presentation" xmlns:smil="http://www.w3.org/2001/SMIL20/" xmlns:anim="urn:oasis:names:tc:opendocument:xmlns:animation:1.0" xmlns:svg="urn:oasis:names:tc:opendocument:xmlns:svg-compatible:1.0" xml:space="preserve">
     <g class="Page">
      <g class="com.sun.star.drawing.CustomShape">
       <g id="id3">
        <rect class="BoundingBox" stroke="none" fill="none" x="3121" y="2486" width="742" height="742"/>
        <path fill="rgb(114,159,207)" stroke="none" d="M 3492,3174 L 3174,3174 3174,2539 3809,2539 3809,3174 3492,3174 Z"/>
        <path fill="none" stroke="rgb(255,255,255)" stroke-width="106" stroke-linejoin="round" d="M 3492,3174 L 3174,3174 3174,2539 3809,2539 3809,3174 3492,3174 Z"/>
       </g>
      </g>
      <g class="com.sun.star.drawing.CustomShape">
       <g id="id4">
        <rect class="BoundingBox" stroke="none" fill="none" x="3756" y="2486" width="742" height="742"/>
        <path fill="rgb(114,159,207)" stroke="none" d="M 4127,3174 L 3809,3174 3809,2539 4444,2539 4444,3174 4127,3174 Z"/>
        <path fill="none" stroke="rgb(255,255,255)" stroke-width="106" stroke-linejoin="round" d="M 4127,3174 L 3809,3174 3809,2539 4444,2539 4444,3174 4127,3174 Z"/>
       </g>
      </g>
      <g class="com.sun.star.drawing.CustomShape">
       <g id="id5">
        <rect class="BoundingBox" stroke="none" fill="none" x="2486" y="3121" width="742" height="742"/>
        <path fill="rgb(114,159,207)" stroke="none" d="M 2857,3809 L 2539,3809 2539,3174 3174,3174 3174,3809 2857,3809 Z"/>
        <path fill="none" stroke="rgb(255,255,255)" stroke-width="106" stroke-linejoin="round" d="M 2857,3809 L 2539,3809 2539,3174 3174,3174 3174,3809 2857,3809 Z"/>
       </g>
      </g>
      <g class="com.sun.star.drawing.CustomShape">
       <g id="id6">
        <rect class="BoundingBox" stroke="none" fill="none" x="3121" y="3756" width="742" height="742"/>
        <path fill="rgb(114,159,207)" stroke="none" d="M 3492,4444 L 3174,4444 3174,3809 3809,3809 3809,4444 3492,4444 Z"/>
        <path fill="none" stroke="rgb(255,255,255)" stroke-width="106" stroke-linejoin="round" d="M 3492,4444 L 3174,4444 3174,3809 3809,3809 3809,4444 3492,4444 Z"/>
       </g>
      </g>
      <g class="com.sun.star.drawing.CustomShape">
       <g id="id7">
        <rect class="BoundingBox" stroke="none" fill="none" x="3756" y="3756" width="742" height="742"/>
        <path fill="rgb(114,159,207)" stroke="none" d="M 4127,4444 L 3809,4444 3809,3809 4444,3809 4444,4444 4127,4444 Z"/>
        <path fill="none" stroke="rgb(255,255,255)" stroke-width="106" stroke-linejoin="round" d="M 4127,4444 L 3809,4444 3809,3809 4444,3809 4444,4444 4127,4444 Z"/>
       </g>
      </g>
      <g class="com.sun.star.drawing.CustomShape">
       <g id="id8">
        <rect class="BoundingBox" stroke="none" fill="none" x="4391" y="4391" width="742" height="742"/>
        <path fill="rgb(114,159,207)" stroke="none" d="M 4762,5079 L 4444,5079 4444,4444 5079,4444 5079,5079 4762,5079 Z"/>
        <path fill="none" stroke="rgb(255,255,255)" stroke-width="106" stroke-linejoin="round" d="M 4762,5079 L 4444,5079 4444,4444 5079,4444 5079,5079 4762,5079 Z"/>
       </g>
      </g>
      <g class="com.sun.star.drawing.CustomShape">
       <g id="id9">
        <rect class="BoundingBox" stroke="none" fill="none" x="3121" y="5026" width="742" height="742"/>
        <path fill="rgb(114,159,207)" stroke="none" d="M 3492,5714 L 3174,5714 3174,5079 3809,5079 3809,5714 3492,5714 Z"/>
        <path fill="none" stroke="rgb(255,255,255)" stroke-width="106" stroke-linejoin="round" d="M 3492,5714 L 3174,5714 3174,5079 3809,5079 3809,5714 3492,5714 Z"/>
       </g>
      </g>
      <g class="com.sun.star.drawing.CustomShape">
       <g id="id10">
        <rect class="BoundingBox" stroke="none" fill="none" x="3756" y="5026" width="742" height="742"/>
        <path fill="rgb(114,159,207)" stroke="none" d="M 4127,5714 L 3809,5714 3809,5079 4444,5079 4444,5714 4127,5714 Z"/>
        <path fill="none" stroke="rgb(255,255,255)" stroke-width="106" stroke-linejoin="round" d="M 4127,5714 L 3809,5714 3809,5079 4444,5079 4444,5714 4127,5714 Z"/>
       </g>
      </g>
      <g class="com.sun.star.drawing.CustomShape">
       <g id="id11">
        <rect class="BoundingBox" stroke="none" fill="none" x="6296" y="2486" width="742" height="742"/>
        <path fill="rgb(114,159,207)" stroke="none" d="M 6667,3174 L 6349,3174 6349,2539 6984,2539 6984,3174 6667,3174 Z"/>
        <path fill="none" stroke="rgb(255,255,255)" stroke-width="106" stroke-linejoin="round" d="M 6667,3174 L 6349,3174 6349,2539 6984,2539 6984,3174 6667,3174 Z"/>
       </g>
      </g>
      <g class="com.sun.star.drawing.CustomShape">
       <g id="id12">
        <rect class="BoundingBox" stroke="none" fill="none" x="6931" y="2486" width="742" height="742"/>
        <path fill="rgb(114,159,207)" stroke="none" d="M 7302,3174 L 6984,3174 6984,2539 7619,2539 7619,3174 7302,3174 Z"/>
        <path fill="none" stroke="rgb(255,255,255)" stroke-width="106" stroke-linejoin="round" d="M 7302,3174 L 6984,3174 6984,2539 7619,2539 7619,3174 7302,3174 Z"/>
       </g>
      </g>
      <g class="com.sun.star.drawing.CustomShape">
       <g id="id13">
        <rect class="BoundingBox" stroke="none" fill="none" x="5661" y="3756" width="742" height="742"/>
        <path fill="rgb(114,159,207)" stroke="none" d="M 6032,4444 L 5714,4444 5714,3809 6349,3809 6349,4444 6032,4444 Z"/>
        <path fill="none" stroke="rgb(255,255,255)" stroke-width="106" stroke-linejoin="round" d="M 6032,4444 L 5714,4444 5714,3809 6349,3809 6349,4444 6032,4444 Z"/>
       </g>
      </g>
      <g class="com.sun.star.drawing.CustomShape">
       <g id="id14">
        <rect class="BoundingBox" stroke="none" fill="none" x="6931" y="3756" width="742" height="742"/>
        <path fill="rgb(114,159,207)" stroke="none" d="M 7302,4444 L 6984,4444 6984,3809 7619,3809 7619,4444 7302,4444 Z"/>
        <path fill="none" stroke="rgb(255,255,255)" stroke-width="106" stroke-linejoin="round" d="M 7302,4444 L 6984,4444 6984,3809 7619,3809 7619,4444 7302,4444 Z"/>
       </g>
      </g>
      <g class="com.sun.star.drawing.CustomShape">
       <g id="id15">
        <rect class="BoundingBox" stroke="none" fill="none" x="5661" y="4391" width="742" height="742"/>
        <path fill="rgb(114,159,207)" stroke="none" d="M 6032,5079 L 5714,5079 5714,4444 6349,4444 6349,5079 6032,5079 Z"/>
        <path fill="none" stroke="rgb(255,255,255)" stroke-width="106" stroke-linejoin="round" d="M 6032,5079 L 5714,5079 5714,4444 6349,4444 6349,5079 6032,5079 Z"/>
       </g>
      </g>
      <g class="com.sun.star.drawing.CustomShape">
       <g id="id16">
        <rect class="BoundingBox" stroke="none" fill="none" x="5661" y="3121" width="742" height="742"/>
        <path fill="rgb(114,159,207)" stroke="none" d="M 6032,3809 L 5714,3809 5714,3174 6349,3174 6349,3809 6032,3809 Z"/>
        <path fill="none" stroke="rgb(255,255,255)" stroke-width="106" stroke-linejoin="round" d="M 6032,3809 L 5714,3809 5714,3174 6349,3174 6349,3809 6032,3809 Z"/>
       </g>
      </g>
      <g class="com.sun.star.drawing.CustomShape">
       <g id="id17">
        <rect class="BoundingBox" stroke="none" fill="none" x="7566" y="3756" width="742" height="742"/>
        <path fill="rgb(114,159,207)" stroke="none" d="M 7937,4444 L 7619,4444 7619,3809 8254,3809 8254,4444 7937,4444 Z"/>
        <path fill="none" stroke="rgb(255,255,255)" stroke-width="106" stroke-linejoin="round" d="M 7937,4444 L 7619,4444 7619,3809 8254,3809 8254,4444 7937,4444 Z"/>
       </g>
      </g>
      <g class="com.sun.star.drawing.CustomShape">
       <g id="id18">
        <rect class="BoundingBox" stroke="none" fill="none" x="7566" y="4391" width="742" height="742"/>
        <path fill="rgb(114,159,207)" stroke="none" d="M 7937,5079 L 7619,5079 7619,4444 8254,4444 8254,5079 7937,5079 Z"/>
        <path fill="none" stroke="rgb(255,255,255)" stroke-width="106" stroke-linejoin="round" d="M 7937,5079 L 7619,5079 7619,4444 8254,4444 8254,5079 7937,5079 Z"/>
       </g>
      </g>
      <g class="com.sun.star.drawing.CustomShape">
       <g id="id19">
        <rect class="BoundingBox" stroke="none" fill="none" x="6296" y="5026" width="742" height="742"/>
        <path fill="rgb(114,159,207)" stroke="none" d="M 6667,5714 L 6349,5714 6349,5079 6984,5079 6984,5714 6667,5714 Z"/>
        <path fill="none" stroke="rgb(255,255,255)" stroke-width="106" stroke-linejoin="round" d="M 6667,5714 L 6349,5714 6349,5079 6984,5079 6984,5714 6667,5714 Z"/>
       </g>
      </g>
      <g class="com.sun.star.drawing.CustomShape">
       <g id="id20">
        <rect class="BoundingBox" stroke="none" fill="none" x="6931" y="5026" width="742" height="742"/>
        <path fill="rgb(114,159,207)" stroke="none" d="M 7302,5714 L 6984,5714 6984,5079 7619,5079 7619,5714 7302,5714 Z"/>
        <path fill="none" stroke="rgb(255,255,255)" stroke-width="106" stroke-linejoin="round" d="M 7302,5714 L 6984,5714 6984,5079 7619,5079 7619,5714 7302,5714 Z"/>
       </g>
      </g>
      <g class="com.sun.star.drawing.CustomShape">
       <g id="id21">
        <rect class="BoundingBox" stroke="none" fill="none" x="2486" y="5026" width="742" height="742"/>
        <path fill="rgb(114,159,207)" stroke="none" d="M 2857,5714 L 2539,5714 2539,5079 3174,5079 3174,5714 2857,5714 Z"/>
        <path fill="none" stroke="rgb(255,255,255)" stroke-width="106" stroke-linejoin="round" d="M 2857,5714 L 2539,5714 2539,5079 3174,5079 3174,5714 2857,5714 Z"/>
       </g>
      </g>
      <g class="com.sun.star.drawing.CustomShape">
       <g id="id22">
        <rect class="BoundingBox" stroke="none" fill="none" x="4391" y="2486" width="742" height="742"/>
        <path fill="rgb(114,159,207)" stroke="none" d="M 4762,3174 L 4444,3174 4444,2539 5079,2539 5079,3174 4762,3174 Z"/>
        <path fill="none" stroke="rgb(255,255,255)" stroke-width="106" stroke-linejoin="round" d="M 4762,3174 L 4444,3174 4444,2539 5079,2539 5079,3174 4762,3174 Z"/>
       </g>
      </g>
      <g class="com.sun.star.drawing.CustomShape">
       <g id="id23">
        <rect class="BoundingBox" stroke="none" fill="none" x="7566" y="2486" width="742" height="742"/>
        <path fill="rgb(114,159,207)" stroke="none" d="M 7937,3174 L 7619,3174 7619,2539 8254,2539 8254,3174 7937,3174 Z"/>
        <path fill="none" stroke="rgb(255,255,255)" stroke-width="106" stroke-linejoin="round" d="M 7937,3174 L 7619,3174 7619,2539 8254,2539 8254,3174 7937,3174 Z"/>
       </g>
      </g>
      <g class="com.sun.star.drawing.CustomShape">
       <g id="id24">
        <rect class="BoundingBox" stroke="none" fill="none" x="2486" y="3756" width="742" height="742"/>
        <path fill="rgb(114,159,207)" stroke="none" d="M 2857,4444 L 2539,4444 2539,3809 3174,3809 3174,4444 2857,4444 Z"/>
        <path fill="none" stroke="rgb(255,255,255)" stroke-width="106" stroke-linejoin="round" d="M 2857,4444 L 2539,4444 2539,3809 3174,3809 3174,4444 2857,4444 Z"/>
       </g>
      </g>
      <g class="com.sun.star.drawing.CustomShape">
       <g id="id25">
        <rect class="BoundingBox" stroke="none" fill="none" x="4391" y="3756" width="742" height="742"/>
        <path fill="rgb(114,159,207)" stroke="none" d="M 4762,4444 L 4444,4444 4444,3809 5079,3809 5079,4444 4762,4444 Z"/>
        <path fill="none" stroke="rgb(255,255,255)" stroke-width="106" stroke-linejoin="round" d="M 4762,4444 L 4444,4444 4444,3809 5079,3809 5079,4444 4762,4444 Z"/>
       </g>
      </g>
      <g class="com.sun.star.drawing.CustomShape">
       <g id="id26">
        <rect class="BoundingBox" stroke="none" fill="none" x="5661" y="5026" width="742" height="742"/>
        <path fill="rgb(114,159,207)" stroke="none" d="M 6032,5714 L 5714,5714 5714,5079 6349,5079 6349,5714 6032,5714 Z"/>
        <path fill="none" stroke="rgb(255,255,255)" stroke-width="106" stroke-linejoin="round" d="M 6032,5714 L 5714,5714 5714,5079 6349,5079 6349,5714 6032,5714 Z"/>
       </g>
      </g>
     </g>
</svg>
